<?xml version="1.0"?>
<svg xmlns="http://www.w3.org/2000/svg" id="Layer_1" height="512px" viewBox="0 0 512 512" width="512px" data-name="Layer 1"><g><path d="m238 278h-23v17.172 4.828h23z" data-original="#000000" class="active-path" data-old_color="#000000" fill="#CDE834"/><path d="m304 295.172v-17.172h-23v22h23z" data-original="#000000" class="active-path" data-old_color="#000000" fill="#CDE834"/><path d="m314 330h13v10h-13z" data-original="#000000" class="active-path" data-old_color="#000000" fill="#CDE834"/><path d="m304 115.543c0-29.722-4.136-40.558-11.8-62.144-1.878-5.29-4.235-11.286-6.578-18.317-4.69-14.069-16.782-19.082-26.506-19.082s-21.8 5.013-26.49 19.082c-2.343 7.03-4.355 13.025-6.232 18.315-7.665 21.587-11.394 32.423-11.394 62.146v152.457h89zm-12.115-18.1a5 5 0 0 1 -6.324-3.163c-4.691-14.065-16.752-19.08-26.476-19.08s-21.785 5.015-26.475 19.084a5 5 0 1 1 -9.487-3.162 37.908 37.908 0 0 1 71.924 0 5 5 0 0 1 -3.162 6.325z" data-original="#000000" class="active-path" data-old_color="#000000" fill="#CDE834"/><path d="m314 310h68v10h-68z" data-original="#000000" class="active-path" data-old_color="#000000" fill="#CDE834"/><path d="m368 330h14v10h-14z" data-original="#000000" class="active-path" data-old_color="#000000" fill="#CDE834"/><path d="m248 278h23v22h-23z" data-original="#000000" class="active-path" data-old_color="#000000" fill="#CDE834"/><path d="m137 330h14v10h-14z" data-original="#000000" class="active-path" data-old_color="#000000" fill="#CDE834"/><path d="m461.053 493.2a21.828 21.828 0 0 0 -38.111-6.46 5 5 0 0 1 -7.95-6.066 31.851 31.851 0 0 1 15.717-11.038 24.6 24.6 0 0 0 -41.537-18.511 5 5 0 1 1 -6.883-7.253 34.24 34.24 0 0 1 2.825-2.394 19.726 19.726 0 0 0 -19.465-16.978 19.708 19.708 0 0 0 -17.75 11.178 5 5 0 0 1 -9.025-4.323 29.555 29.555 0 0 1 3.269-5.289 11.421 11.421 0 0 0 -22.143 4.034v13.075a24.5 24.5 0 1 1 -49 0v-133.175h-23v133.179a24.5 24.5 0 1 1 -49 0v-3.7a11.356 11.356 0 0 0 -22.523-1.718 34.775 34.775 0 0 1 2.037 4.943 5.011 5.011 0 0 1 -9.521 3.129 24.61 24.61 0 0 0 -47.979 7.6l.194 4.447a24.78 24.78 0 0 1 8.2 13.543 5 5 0 1 1 -9.755 2.2 14.959 14.959 0 0 0 -24.689-7.768 34.584 34.584 0 0 1 3.792 2.952 5 5 0 0 1 -6.7 7.426 24.61 24.61 0 0 0 -41.056 19.738z" data-original="#000000" class="active-path" data-old_color="#000000" fill="#CDE834"/><path d="m191 330h14v10h-14z" data-original="#000000" class="active-path" data-old_color="#000000" fill="#CDE834"/><path d="m382 267.927a43.912 43.912 0 0 0 -43.867-43.842 33.753 33.753 0 0 1 -24.133-10v85.915h68z" data-original="#000000" class="active-path" data-old_color="#000000" fill="#CDE834"/><path d="m205 295.172v-81.09a33.753 33.753 0 0 1 -24.133 10 43.912 43.912 0 0 0 -43.867 43.845v32.073h68z" data-original="#000000" class="active-path" data-old_color="#000000" fill="#CDE834"/><path d="m137 310h68v10h-68z" data-original="#000000" class="active-path" data-old_color="#000000" fill="#CDE834"/><path d="m292 417.524v.075a4.988 4.988 0 1 0 9.975-.075 4.922 4.922 0 0 0 -4.907-5 5.059 5.059 0 0 0 -5.068 5z" data-original="#000000" class="active-path" data-old_color="#000000" fill="#CDE834"/><path d="m302 360.627a5 5 0 1 0 -10 0v39.927a5 5 0 0 0 10 0z" data-original="#000000" class="active-path" data-old_color="#000000" fill="#CDE834"/><path d="m221 373.131a5 5 0 0 0 -5 5v39.393a5 5 0 0 0 10 0v-39.393a5 5 0 0 0 -5-5z" data-original="#000000" class="active-path" data-old_color="#000000" fill="#CDE834"/><path d="m226 360.627a5 5 0 1 0 -10 0v.458a5 5 0 1 0 10 0z" data-original="#000000" class="active-path" data-old_color="#000000" fill="#CDE834"/></g> </svg>
